<svg width="690" height="153" viewBox="0 0 690 153" fill="none" xmlns="http://www.w3.org/2000/svg">
<g clip-path="url(#clip0_1366_32)">
<path d="M676.91 44.13V46.36H673.71V55.97H671.37V46.36H668.19V44.13H676.91Z" fill="#333333"/>
<path d="M689.81 44.13V55.98H687.49V48.29L684.16 53.79H683.89L680.55 48.32V55.98H678.21V44.13H680.61L684.01 49.73L687.4 44.13H689.8H689.81Z" fill="#333333"/>
<path d="M95.8056 0C90.511 0 85.5472 2.05605 81.8068 5.79705C74.0955 13.5097 74.0855 26.0667 81.7968 33.7793C85.5372 37.5203 90.511 39.5864 95.7956 39.5864C101.08 39.5864 106.054 37.5304 109.784 33.7894C117.496 26.0767 117.496 13.5097 109.784 5.78702C106.054 2.05605 101.08 0 95.7956 0L95.8056 0Z" fill="#014C75"/>
<path d="M150.257 117.796C147.278 117.796 144.481 118.96 142.375 121.056C138.033 125.399 138.033 132.47 142.375 136.812C144.481 138.919 147.278 140.082 150.257 140.082C153.235 140.082 156.033 138.919 158.128 136.822C162.47 132.48 162.47 125.409 158.128 121.056C156.022 118.96 153.225 117.796 150.257 117.796Z" fill="#014C75"/>
<path d="M11.0508 70.0359C8.07256 70.0359 5.27481 71.1993 3.16898 73.3055C-1.17305 77.6483 -1.18308 84.7191 3.16898 89.0719C5.27481 91.1781 8.07256 92.3415 11.0608 92.3415C14.0491 92.3415 16.8368 91.1781 18.9427 89.0719C23.2847 84.7291 23.2847 77.6483 18.9427 73.2955C16.8368 71.1993 14.0391 70.0359 11.0608 70.0359H11.0508Z" fill="#014C75"/>
<path d="M146.416 31.302C144.32 31.302 142.355 32.1144 140.871 33.5988C137.822 36.6578 137.812 41.6224 140.871 44.6713C142.355 46.1557 144.32 46.9681 146.416 46.9681C148.512 46.9681 150.477 46.1557 151.951 44.6713C155 41.6123 155 36.6477 151.951 33.5887C150.477 32.1144 148.502 31.302 146.416 31.302Z" fill="#014C75"/>
<path fill-rule="evenodd" clip-rule="evenodd" d="M50.9415 42.5652C52.3253 39.5162 53.0975 36.1263 53.0975 32.5658C53.0975 19.1764 42.2273 8.30444 28.8402 8.30444C15.4531 8.30444 4.573 19.1664 4.573 32.5658C4.573 45.9652 15.4431 56.8271 28.8302 56.8271C36.1004 56.8271 42.6385 53.6177 47.0808 48.5428L79.3602 68.0502C77.3246 72.0419 76.1814 76.5652 76.1814 81.3593C76.1814 84.8094 76.773 88.1192 77.8661 91.1882L53.7693 104.427C50.3198 100.275 45.1153 97.6271 39.3092 97.6271C28.9405 97.6271 20.5172 106.052 20.5172 116.422C20.5172 126.793 28.9405 135.218 39.3092 135.218C49.678 135.218 58.1013 126.793 58.1013 116.422C58.1013 114.406 57.7804 112.471 57.1988 110.645L81.0449 97.5369C85.8783 104.838 93.8804 109.863 103.076 110.635L103.557 127.806C98.393 129.501 94.6626 134.355 94.6626 140.082C94.6626 147.213 100.449 153 107.578 153C114.708 153 120.494 147.213 120.494 140.082C120.494 134.014 116.303 128.919 110.657 127.535L110.176 110.375C123.543 108.268 133.931 97.1257 134.894 83.4053L154.769 82.4024C156.504 87.4873 161.327 91.1481 166.993 91.1481C174.123 91.1481 179.909 85.3611 179.909 78.2301C179.909 71.0991 174.123 65.3121 166.993 65.3121C160.866 65.3121 155.732 69.5847 154.408 75.3115L134.543 76.3145C132.157 62.4838 120.093 51.9428 105.583 51.9428C96.6983 51.9428 88.7262 55.8944 83.3412 62.1328L50.9415 42.5552V42.5652Z" fill="#FF7300"/>
<path d="M654.85 108.2C652.38 108.2 649.94 107.87 647.54 107.21C645.19 106.55 643.03 105.64 641.04 104.5C639.05 103.3 637.34 101.85 635.89 100.17L642.93 93.04C644.44 94.73 646.18 95.99 648.17 96.83C650.16 97.67 652.35 98.09 654.76 98.09C656.69 98.09 658.13 97.82 659.09 97.28C660.11 96.74 660.62 95.93 660.62 94.84C660.62 93.64 660.08 92.7 659 92.04C657.98 91.38 656.62 90.84 654.94 90.41C653.26 89.93 651.48 89.42 649.61 88.87C647.8 88.27 646.06 87.52 644.37 86.61C642.69 85.65 641.3 84.35 640.22 82.73C639.2 81.04 638.69 78.88 638.69 76.23C638.69 73.58 639.35 71.05 640.68 69.01C642.06 66.96 644.02 65.37 646.55 64.22C649.08 63.08 652.06 62.5 655.49 62.5C659.1 62.5 662.35 63.13 665.24 64.4C668.19 65.66 670.63 67.56 672.55 70.09L665.42 77.22C664.1 75.59 662.59 74.42 660.91 73.7C659.28 72.98 657.51 72.62 655.58 72.62C653.84 72.62 652.48 72.89 651.52 73.43C650.62 73.97 650.17 74.72 650.17 75.69C650.17 76.77 650.68 77.62 651.71 78.22C652.79 78.82 654.18 79.36 655.86 79.85C657.55 80.27 659.29 80.78 661.1 81.38C662.97 81.92 664.71 82.7 666.34 83.73C668.03 84.75 669.38 86.11 670.4 87.79C671.48 89.48 672.03 91.64 672.03 94.29C672.03 98.56 670.5 101.96 667.43 104.49C664.36 106.96 660.18 108.19 654.88 108.19L654.85 108.2Z" fill="#014C75"/>
<path d="M616.01 108.11C611.56 108.11 607.55 107.12 604 105.13C600.45 103.14 597.65 100.43 595.6 97C593.55 93.57 592.53 89.72 592.53 85.44C592.53 81.16 593.55 77.22 595.6 73.79C597.65 70.36 600.45 67.65 604 65.66C607.61 63.61 611.61 62.59 616.01 62.59C619.44 62.59 622.6 63.22 625.49 64.49C628.38 65.75 630.88 67.56 632.98 69.91L625.4 77.58C624.26 76.32 622.87 75.35 621.25 74.69C619.69 74.03 617.94 73.7 616.01 73.7C613.84 73.7 611.89 74.21 610.14 75.24C608.46 76.2 607.1 77.56 606.08 79.3C605.12 80.99 604.64 83 604.64 85.35C604.64 87.7 605.12 89.68 606.08 91.49C607.1 93.24 608.46 94.62 610.14 95.64C611.89 96.6 613.84 97.08 616.01 97.08C618 97.08 619.77 96.75 621.34 96.09C622.96 95.37 624.35 94.34 625.49 93.02L633.16 100.69C630.93 103.1 628.37 104.93 625.49 106.2C622.6 107.46 619.44 108.1 616.01 108.1V108.11Z" fill="#014C75"/>
<path d="M573.03 107.21V63.6H584.95V107.21H573.03ZM578.99 56.56C577.06 56.56 575.47 55.93 574.21 54.66C572.95 53.34 572.31 51.71 572.31 49.78C572.31 47.85 572.94 46.32 574.21 44.99C575.47 43.67 577.07 43 578.99 43C580.91 43 582.57 43.66 583.78 44.99C585.04 46.31 585.68 47.91 585.68 49.78C585.68 51.65 585.05 53.33 583.78 54.66C582.58 55.92 580.98 56.56 578.99 56.56Z" fill="#014C75"/>
<path d="M544.34 107.21V45.45H556.17V107.21H544.34ZM534.14 73.98V63.5999H566.38V73.98H534.14Z" fill="#014C75"/>
<path d="M503.84 107.57L485.6 63.6H498.42L510.52 97.19H506.19L518.74 63.6H531.65L512.24 107.57H503.84ZM491.74 125.45L505.01 97.37L512.23 107.57L504.28 125.45H491.73H491.74Z" fill="#014C75"/>
<path d="M444.32 107.21V43.73H456.6V107.21H444.32ZM453.35 107.21V96.28H485.68V107.21H453.35Z" fill="#014C75"/>
<path d="M415.06 108.11C410.48 108.11 406.42 107.15 402.87 105.22C399.32 103.23 396.49 100.53 394.38 97.09C392.33 93.66 391.31 89.75 391.31 85.35C391.31 80.95 392.3 77.16 394.29 73.79C396.34 70.36 399.11 67.65 402.6 65.66C406.09 63.61 409.97 62.59 414.25 62.59C418.53 62.59 422.17 63.55 425.36 65.48C428.61 67.35 431.14 69.93 432.94 73.25C434.81 76.5 435.74 80.2 435.74 84.36C435.74 85.14 435.68 85.96 435.56 86.8C435.5 87.58 435.35 88.49 435.11 89.51L398.45 89.6V80.75L429.6 80.66L424.81 84.36C424.69 81.77 424.21 79.6 423.37 77.86C422.59 76.11 421.41 74.79 419.85 73.89C418.35 72.93 416.48 72.45 414.25 72.45C411.9 72.45 409.86 72.99 408.11 74.08C406.37 75.1 405.01 76.58 404.05 78.5C403.15 80.37 402.7 82.59 402.7 85.18C402.7 87.77 403.18 90.15 404.14 92.13C405.16 94.06 406.61 95.56 408.47 96.64C410.34 97.66 412.5 98.17 414.97 98.17C417.2 98.17 419.21 97.81 421.02 97.09C422.83 96.31 424.39 95.16 425.72 93.66L432.67 100.61C430.56 103.08 427.97 104.94 424.9 106.21C421.89 107.47 418.61 108.11 415.06 108.11Z" fill="#FF7300"/>
<path d="M371.9 107.21V41.9299H383.73V107.21H371.9Z" fill="#FF7300"/>
<path d="M348.04 108.11C343.59 108.11 339.58 107.12 336.03 105.13C332.48 103.14 329.68 100.43 327.63 97C325.58 93.57 324.56 89.72 324.56 85.44C324.56 81.16 325.58 77.22 327.63 73.79C329.68 70.36 332.48 67.65 336.03 65.66C339.64 63.61 343.64 62.59 348.04 62.59C351.47 62.59 354.63 63.22 357.52 64.49C360.41 65.76 362.91 67.56 365.01 69.91L357.43 77.58C356.29 76.32 354.9 75.35 353.28 74.69C351.71 74.03 349.97 73.7 348.04 73.7C345.87 73.7 343.92 74.21 342.17 75.24C340.49 76.2 339.13 77.56 338.11 79.3C337.15 80.99 336.67 83 336.67 85.35C336.67 87.7 337.15 89.68 338.11 91.49C339.13 93.24 340.49 94.62 342.17 95.64C343.92 96.6 345.87 97.08 348.04 97.08C350.03 97.08 351.8 96.75 353.37 96.09C354.99 95.37 356.38 94.34 357.52 93.02L365.19 100.69C362.96 103.1 360.4 104.93 357.52 106.2C354.64 107.47 351.47 108.1 348.04 108.1V108.11Z" fill="#FF7300"/>
<path d="M291.13 107.21V63.5999H302.96V107.21H291.13ZM302.96 83.0999L298.35 80.0299C298.89 74.6699 300.46 70.4599 303.05 67.3899C305.64 64.2599 309.37 62.6899 314.25 62.6899C316.36 62.6899 318.25 63.0499 319.94 63.7699C321.63 64.4299 323.16 65.5499 324.55 67.1099L317.15 75.5999C316.49 74.8799 315.67 74.3399 314.71 73.9699C313.81 73.6099 312.75 73.4299 311.55 73.4299C309.02 73.4299 306.94 74.2399 305.32 75.8699C303.75 77.4399 302.97 79.8399 302.97 83.0899L302.96 83.0999Z" fill="#FF7300"/>
<path d="M268.73 107.21V63.6H280.65V107.21H268.73ZM274.69 56.56C272.76 56.56 271.17 55.93 269.91 54.66C268.65 53.34 268.01 51.71 268.01 49.78C268.01 47.85 268.64 46.32 269.91 44.99C271.17 43.67 272.77 43 274.69 43C276.61 43 278.27 43.66 279.48 44.99C280.74 46.31 281.38 47.91 281.38 49.78C281.38 51.65 280.75 53.33 279.48 54.66C278.28 55.92 276.68 56.56 274.69 56.56Z" fill="#FF7300"/>
<path d="M237.53 108.11C232.89 108.11 228.59 107.3 224.62 105.67C220.65 103.98 217.16 101.67 214.15 98.72C211.2 95.71 208.91 92.22 207.29 88.25C205.72 84.28 204.94 80 204.94 75.43C204.94 70.86 205.72 66.58 207.29 62.61C208.91 58.64 211.2 55.18 214.15 52.23C217.16 49.28 220.62 46.96 224.53 45.28C228.5 43.59 232.84 42.75 237.53 42.75C242.59 42.75 247.04 43.59 250.89 45.28C254.74 46.91 258.14 49.16 261.09 52.05L252.78 60.36C251.04 58.43 248.9 56.93 246.37 55.85C243.84 54.77 240.89 54.22 237.52 54.22C234.57 54.22 231.86 54.73 229.39 55.75C226.98 56.71 224.88 58.16 223.07 60.08C221.26 61.95 219.88 64.2 218.92 66.85C217.96 69.44 217.47 72.3 217.47 75.43C217.47 78.56 217.95 81.51 218.92 84.1C219.88 86.69 221.27 88.95 223.07 90.87C224.88 92.74 226.98 94.18 229.39 95.2C231.86 96.22 234.57 96.73 237.52 96.73C241.07 96.73 244.11 96.19 246.64 95.1C249.23 94.02 251.4 92.48 253.14 90.5L261.45 98.81C258.5 101.76 255.07 104.05 251.16 105.67C247.25 107.3 242.7 108.11 237.53 108.11Z" fill="#FF7300"/>
</g>
<defs>
<clipPath id="clip0_1366_32">
<rect width="690" height="153" fill="white"/>
</clipPath>
</defs>
</svg>
